<?xml version="1.0" encoding="UTF-8"?>
<svg width="100%" height="100%" viewBox="0 0 1440 900" xmlns="http://www.w3.org/2000/svg">
  <defs>
    <linearGradient id="grad1" x1="0%" y1="0%" x2="100%" y2="100%">
      <stop offset="0%" style="stop-color:#4F46E5;stop-opacity:0.05" />
      <stop offset="100%" style="stop-color:#7C3AED;stop-opacity:0.05" />
    </linearGradient>

    <!-- 裝飾性圖案 -->
    <pattern id="pattern-geometric" x="0" y="0" width="200" height="200" patternUnits="userSpaceOnUse">
      <path d="M0 0 L200 0 L200 200 Z" fill="#4F46E5" opacity="0.03" />
      <path d="M0 0 L0 200 L200 200 Z" fill="#7C3AED" opacity="0.03" />
    </pattern>
  </defs>

  <!-- 背景 -->
  <rect width="100%" height="100%" fill="url(#grad1)" />
  <rect width="100%" height="100%" fill="url(#pattern-geometric)" />

  <!-- 裝飾性波浪 -->
  <path d="M0,200 C200,150 400,250 600,200 C800,150 1000,250 1200,200 C1400,150 1440,200 1440,200" stroke="#4F46E5"
    stroke-width="1" fill="none" opacity="0.1" />

  <path d="M0,400 C200,350 400,450 600,400 C800,350 1000,450 1200,400 C1400,350 1440,400 1440,400" stroke="#7C3AED"
    stroke-width="1" fill="none" opacity="0.1" />

  <path d="M0,600 C200,550 400,650 600,600 C800,550 1000,650 1200,600 C1400,550 1440,600 1440,600" stroke="#4F46E5"
    stroke-width="1" fill="none" opacity="0.1" />

  <!-- 裝飾性圓形 -->
  <circle cx="200" cy="200" r="100" fill="#4F46E5" opacity="0.03" />
  <circle cx="1200" cy="700" r="150" fill="#7C3AED" opacity="0.03" />
  <circle cx="800" cy="300" r="80" fill="#4F46E5" opacity="0.03" />
</svg>